<svg xmlns="http://www.w3.org/2000/svg" viewBox="0 0 1440 900" fill="none">
  <g stroke="#7f8b96" stroke-width="2.3" stroke-linecap="round" stroke-linejoin="round">

    <!-- yellow duck (outline) -->
    <g transform="translate(60 80) scale(1.05)">
      <ellipse cx="40" cy="55" rx="28" ry="22"/>
      <circle cx="62" cy="34" r="16"/>
      <path d="M74 34h18c4 0 6 4 4 8h-16"/>
      <circle cx="66" cy="32" r="2.2" fill="#7f8b96" stroke="none"/>
      <path d="M28 50c8 2 16 2 24-2"/>
      <path d="M24 68c-6 8-8 14-4 18M52 70c4 8 6 14 2 18"/>
      <path d="M54 20c2-8 8-10 14-6"/>
    </g>

    <!-- panda -->
    <g transform="translate(1240 90) scale(1.05)">
      <circle cx="45" cy="48" r="30"/>
      <circle cx="22" cy="22" r="12"/>
      <circle cx="68" cy="22" r="12"/>
      <ellipse cx="32" cy="46" rx="8" ry="10"/>
      <ellipse cx="58" cy="46" rx="8" ry="10"/>
      <ellipse cx="45" cy="58" rx="7" ry="5"/>
      <circle cx="32" cy="46" r="2.2" fill="#7f8b96" stroke="none"/>
      <circle cx="58" cy="46" r="2.2" fill="#7f8b96" stroke="none"/>
      <path d="M28 78c-2 10 2 16 8 16M62 78c2 10-2 16-8 16"/>
    </g>

    <!-- capybara -->
    <g transform="translate(140 620) scale(1.05)">
      <ellipse cx="55" cy="48" rx="48" ry="28"/>
      <rect x="78" y="28" width="34" height="24" rx="10"/>
      <circle cx="100" cy="38" r="2" fill="#7f8b96" stroke="none"/>
      <path d="M88 48h16"/>
      <path d="M28 66c-2 12 0 18 6 18M50 70c0 12 2 18 6 16M70 68c2 12 4 18 8 16"/>
      <ellipse cx="18" cy="44" rx="8" ry="5"/>
    </g>

    <!-- elk with antlers -->
    <g transform="translate(1080 580) scale(1.05)">
      <ellipse cx="50" cy="70" rx="28" ry="22"/>
      <path d="M70 58c8-10 18-12 28-6"/>
      <circle cx="96" cy="50" r="12"/>
      <circle cx="100" cy="48" r="2" fill="#7f8b96" stroke="none"/>
      <path d="M106 52c8 2 10 8 8 12"/>
      <path d="M88 28l-8-22M88 28l8-18M88 28l18-12"/>
      <path d="M102 30l6-20M102 30l16-10"/>
      <path d="M40 84v18M58 86v18M72 82v16"/>
    </g>

    <!-- rabbit -->
    <g transform="translate(960 50) scale(1.05)">
      <ellipse cx="40" cy="62" rx="24" ry="20"/>
      <circle cx="40" cy="36" r="16"/>
      <ellipse cx="30" cy="8" rx="6" ry="18"/>
      <ellipse cx="50" cy="8" rx="6" ry="18"/>
      <circle cx="34" cy="34" r="2" fill="#7f8b96" stroke="none"/>
      <circle cx="46" cy="34" r="2" fill="#7f8b96" stroke="none"/>
      <path d="M40 40v6"/>
      <path d="M34 48c4 4 8 4 12 0"/>
      <path d="M28 76c-2 10 2 16 8 14M52 76c2 10-2 16-8 14"/>
      <path d="M58 58c10 2 14 10 8 16"/>
    </g>

    <!-- horse -->
    <g transform="translate(30 340) scale(1.05)">
      <ellipse cx="48" cy="58" rx="34" ry="22"/>
      <path d="M74 48c14-8 22-6 28 2l8 10c2 4-2 8-8 6l-18-4"/>
      <circle cx="104" cy="52" r="2" fill="#7f8b96" stroke="none"/>
      <path d="M78 40c-2-12 4-20 14-18"/>
      <path d="M70 34c-8-10-6-18 2-22"/>
      <path d="M30 72v20M48 74v20M64 72v18M78 70v16"/>
      <path d="M20 50c-8 0-12 6-10 12"/>
    </g>

    <!-- cow -->
    <g transform="translate(1220 390) scale(1.05)">
      <ellipse cx="50" cy="52" rx="38" ry="26"/>
      <circle cx="84" cy="40" r="14"/>
      <path d="M94 42c8 0 12 5 10 10"/>
      <circle cx="88" cy="38" r="2" fill="#7f8b96" stroke="none"/>
      <path d="M74 28l-6-12M92 28l6-12"/>
      <circle cx="36" cy="48" r="8"/>
      <circle cx="58" cy="58" r="7"/>
      <ellipse cx="50" cy="78" rx="8" ry="5"/>
      <path d="M28 70c-2 12 0 18 6 16M50 74c0 12 2 16 6 14M70 70c2 12 4 16 8 14"/>
      <ellipse cx="14" cy="48" rx="8" ry="5"/>
    </g>

    <!-- sheep -->
    <g transform="translate(600 30) scale(1.05)">
      <path d="M20 55c0-8 6-14 14-16 2-10 10-16 20-16s18 6 20 16c8 2 14 8 14 16 0 14-12 24-34 24S20 69 20 55z"/>
      <circle cx="78" cy="58" r="12"/>
      <circle cx="82" cy="56" r="1.8" fill="#7f8b96" stroke="none"/>
      <path d="M88 60c6 1 8 5 6 8"/>
      <path d="M34 78v12M50 80v12M64 78v10"/>
      <circle cx="34" cy="50" r="5"/>
      <circle cx="52" cy="44" r="6"/>
      <circle cx="48" cy="58" r="5"/>
    </g>

    <!-- second duck -->
    <g transform="translate(820 690) scale(1.05)">
      <ellipse cx="40" cy="50" rx="26" ry="20"/>
      <circle cx="60" cy="32" r="14"/>
      <path d="M70 32h16c3 0 5 3 3 7H70"/>
      <circle cx="64" cy="30" r="2" fill="#7f8b96" stroke="none"/>
      <path d="M24 62c-4 8-4 14 0 16M50 64c4 8 4 14 0 16"/>
    </g>

    <!-- second rabbit -->
    <g transform="translate(430 700) scale(1.05)">
      <ellipse cx="36" cy="58" rx="22" ry="18"/>
      <circle cx="36" cy="34" r="14"/>
      <ellipse cx="28" cy="8" rx="5" ry="16"/>
      <ellipse cx="44" cy="8" rx="5" ry="16"/>
      <circle cx="31" cy="32" r="1.8" fill="#7f8b96" stroke="none"/>
      <circle cx="41" cy="32" r="1.8" fill="#7f8b96" stroke="none"/>
      <path d="M26 70c-2 8 0 14 6 14M46 70c2 8 0 14-6 14"/>
    </g>

    <!-- tiny sparkles -->
    <g transform="translate(700 380)">
      <path d="M16 16v12M10 22h12"/>
      <path d="M68 46v10M63 51h10"/>
      <path d="M120 20v12M114 26h12"/>
    </g>
  </g>
</svg>
